<mxfile host="app.diagrams.net" modified="2023-06-30T03:35:05.225Z" agent="Mozilla/5.0 (Windows NT 10.0; Win64; x64) AppleWebKit/537.36 (KHTML, like Gecko) Chrome/114.0.0.0 Safari/537.36" etag="_cX3_nkM1iTf8JHc7gx2" version="21.5.2" type="github">
  <diagram name="페이지-1" id="V4UKIX_Ykp5ovj9eztqy">
    <mxGraphModel dx="2261" dy="796" grid="1" gridSize="10" guides="1" tooltips="1" connect="1" arrows="1" fold="1" page="1" pageScale="1" pageWidth="827" pageHeight="1169" math="0" shadow="0">
      <root>
        <mxCell id="0" />
        <mxCell id="1" parent="0" />
        <mxCell id="_Ivw8oaos_YPIs7JbP6X-40" style="edgeStyle=orthogonalEdgeStyle;rounded=0;orthogonalLoop=1;jettySize=auto;html=1;exitX=1;exitY=0.3333333333333333;exitDx=0;exitDy=0;exitPerimeter=0;entryX=0;entryY=0.5;entryDx=0;entryDy=0;" parent="1" source="_Ivw8oaos_YPIs7JbP6X-1" target="_Ivw8oaos_YPIs7JbP6X-38" edge="1">
          <mxGeometry relative="1" as="geometry" />
        </mxCell>
        <mxCell id="_Ivw8oaos_YPIs7JbP6X-41" style="edgeStyle=orthogonalEdgeStyle;rounded=0;orthogonalLoop=1;jettySize=auto;html=1;exitX=1;exitY=0.3333333333333333;exitDx=0;exitDy=0;exitPerimeter=0;entryX=0;entryY=0.5;entryDx=0;entryDy=0;" parent="1" source="_Ivw8oaos_YPIs7JbP6X-1" target="_Ivw8oaos_YPIs7JbP6X-39" edge="1">
          <mxGeometry relative="1" as="geometry" />
        </mxCell>
        <mxCell id="_Ivw8oaos_YPIs7JbP6X-1" value="유저" style="shape=umlActor;verticalLabelPosition=bottom;verticalAlign=top;html=1;outlineConnect=0;" parent="1" vertex="1">
          <mxGeometry x="-60" y="320" width="30" height="60" as="geometry" />
        </mxCell>
        <mxCell id="_Ivw8oaos_YPIs7JbP6X-2" value="당근마켓" style="swimlane;whiteSpace=wrap;html=1;" parent="1" vertex="1">
          <mxGeometry y="20" width="940" height="670" as="geometry" />
        </mxCell>
        <mxCell id="_Ivw8oaos_YPIs7JbP6X-17" style="edgeStyle=orthogonalEdgeStyle;rounded=0;orthogonalLoop=1;jettySize=auto;html=1;exitX=1;exitY=0.5;exitDx=0;exitDy=0;entryX=0;entryY=0.5;entryDx=0;entryDy=0;" parent="_Ivw8oaos_YPIs7JbP6X-2" source="_Ivw8oaos_YPIs7JbP6X-3" target="_Ivw8oaos_YPIs7JbP6X-4" edge="1">
          <mxGeometry relative="1" as="geometry" />
        </mxCell>
        <mxCell id="_Ivw8oaos_YPIs7JbP6X-18" style="edgeStyle=orthogonalEdgeStyle;rounded=0;orthogonalLoop=1;jettySize=auto;html=1;exitX=1;exitY=0.5;exitDx=0;exitDy=0;entryX=0;entryY=0.5;entryDx=0;entryDy=0;" parent="_Ivw8oaos_YPIs7JbP6X-2" source="_Ivw8oaos_YPIs7JbP6X-3" target="_Ivw8oaos_YPIs7JbP6X-5" edge="1">
          <mxGeometry relative="1" as="geometry" />
        </mxCell>
        <mxCell id="_Ivw8oaos_YPIs7JbP6X-19" style="edgeStyle=orthogonalEdgeStyle;rounded=0;orthogonalLoop=1;jettySize=auto;html=1;exitX=1;exitY=0.5;exitDx=0;exitDy=0;entryX=0;entryY=0.5;entryDx=0;entryDy=0;" parent="_Ivw8oaos_YPIs7JbP6X-2" source="_Ivw8oaos_YPIs7JbP6X-3" target="_Ivw8oaos_YPIs7JbP6X-6" edge="1">
          <mxGeometry relative="1" as="geometry" />
        </mxCell>
        <mxCell id="_Ivw8oaos_YPIs7JbP6X-20" style="edgeStyle=orthogonalEdgeStyle;rounded=0;orthogonalLoop=1;jettySize=auto;html=1;exitX=1;exitY=0.5;exitDx=0;exitDy=0;entryX=0;entryY=0.5;entryDx=0;entryDy=0;" parent="_Ivw8oaos_YPIs7JbP6X-2" source="_Ivw8oaos_YPIs7JbP6X-3" target="_Ivw8oaos_YPIs7JbP6X-7" edge="1">
          <mxGeometry relative="1" as="geometry" />
        </mxCell>
        <mxCell id="_Ivw8oaos_YPIs7JbP6X-3" value="상품" style="rounded=1;whiteSpace=wrap;html=1;" parent="_Ivw8oaos_YPIs7JbP6X-2" vertex="1">
          <mxGeometry x="260" y="130" width="120" height="60" as="geometry" />
        </mxCell>
        <mxCell id="_Ivw8oaos_YPIs7JbP6X-21" style="edgeStyle=orthogonalEdgeStyle;rounded=0;orthogonalLoop=1;jettySize=auto;html=1;exitX=1;exitY=0.5;exitDx=0;exitDy=0;entryX=0;entryY=0.5;entryDx=0;entryDy=0;" parent="_Ivw8oaos_YPIs7JbP6X-2" source="_Ivw8oaos_YPIs7JbP6X-4" target="_Ivw8oaos_YPIs7JbP6X-9" edge="1">
          <mxGeometry relative="1" as="geometry" />
        </mxCell>
        <mxCell id="_Ivw8oaos_YPIs7JbP6X-23" style="edgeStyle=orthogonalEdgeStyle;rounded=0;orthogonalLoop=1;jettySize=auto;html=1;exitX=1;exitY=0.5;exitDx=0;exitDy=0;entryX=0;entryY=0.5;entryDx=0;entryDy=0;" parent="_Ivw8oaos_YPIs7JbP6X-2" source="_Ivw8oaos_YPIs7JbP6X-4" target="_Ivw8oaos_YPIs7JbP6X-8" edge="1">
          <mxGeometry relative="1" as="geometry" />
        </mxCell>
        <mxCell id="_Ivw8oaos_YPIs7JbP6X-24" style="edgeStyle=orthogonalEdgeStyle;rounded=0;orthogonalLoop=1;jettySize=auto;html=1;exitX=1;exitY=0.5;exitDx=0;exitDy=0;entryX=0;entryY=0.5;entryDx=0;entryDy=0;" parent="_Ivw8oaos_YPIs7JbP6X-2" source="_Ivw8oaos_YPIs7JbP6X-4" target="_Ivw8oaos_YPIs7JbP6X-10" edge="1">
          <mxGeometry relative="1" as="geometry" />
        </mxCell>
        <mxCell id="_Ivw8oaos_YPIs7JbP6X-4" value="상품 조회" style="rounded=1;whiteSpace=wrap;html=1;" parent="_Ivw8oaos_YPIs7JbP6X-2" vertex="1">
          <mxGeometry x="420" y="100" width="120" height="60" as="geometry" />
        </mxCell>
        <mxCell id="_Ivw8oaos_YPIs7JbP6X-36" style="edgeStyle=orthogonalEdgeStyle;rounded=0;orthogonalLoop=1;jettySize=auto;html=1;exitX=1;exitY=0.5;exitDx=0;exitDy=0;entryX=0;entryY=0.5;entryDx=0;entryDy=0;" parent="_Ivw8oaos_YPIs7JbP6X-2" source="_Ivw8oaos_YPIs7JbP6X-5" target="_Ivw8oaos_YPIs7JbP6X-33" edge="1">
          <mxGeometry relative="1" as="geometry" />
        </mxCell>
        <mxCell id="_Ivw8oaos_YPIs7JbP6X-37" style="edgeStyle=orthogonalEdgeStyle;rounded=0;orthogonalLoop=1;jettySize=auto;html=1;exitX=1;exitY=0.5;exitDx=0;exitDy=0;entryX=0;entryY=0.5;entryDx=0;entryDy=0;" parent="_Ivw8oaos_YPIs7JbP6X-2" source="_Ivw8oaos_YPIs7JbP6X-5" target="_Ivw8oaos_YPIs7JbP6X-35" edge="1">
          <mxGeometry relative="1" as="geometry" />
        </mxCell>
        <mxCell id="_Ivw8oaos_YPIs7JbP6X-5" value="상품 생성" style="rounded=1;whiteSpace=wrap;html=1;" parent="_Ivw8oaos_YPIs7JbP6X-2" vertex="1">
          <mxGeometry x="420" y="240" width="120" height="60" as="geometry" />
        </mxCell>
        <mxCell id="_Ivw8oaos_YPIs7JbP6X-6" value="상품 수정" style="rounded=1;whiteSpace=wrap;html=1;" parent="_Ivw8oaos_YPIs7JbP6X-2" vertex="1">
          <mxGeometry x="420" y="330" width="120" height="60" as="geometry" />
        </mxCell>
        <mxCell id="_Ivw8oaos_YPIs7JbP6X-7" value="상품 삭제" style="rounded=1;whiteSpace=wrap;html=1;" parent="_Ivw8oaos_YPIs7JbP6X-2" vertex="1">
          <mxGeometry x="420" y="410" width="120" height="60" as="geometry" />
        </mxCell>
        <mxCell id="_Ivw8oaos_YPIs7JbP6X-26" style="edgeStyle=orthogonalEdgeStyle;rounded=0;orthogonalLoop=1;jettySize=auto;html=1;exitX=1;exitY=0.5;exitDx=0;exitDy=0;entryX=0;entryY=0.5;entryDx=0;entryDy=0;" parent="_Ivw8oaos_YPIs7JbP6X-2" source="_Ivw8oaos_YPIs7JbP6X-8" target="_Ivw8oaos_YPIs7JbP6X-11" edge="1">
          <mxGeometry relative="1" as="geometry" />
        </mxCell>
        <mxCell id="_Ivw8oaos_YPIs7JbP6X-8" value="상품 단건 조회" style="rounded=1;whiteSpace=wrap;html=1;" parent="_Ivw8oaos_YPIs7JbP6X-2" vertex="1">
          <mxGeometry x="610" y="30" width="120" height="60" as="geometry" />
        </mxCell>
        <mxCell id="_Ivw8oaos_YPIs7JbP6X-25" style="edgeStyle=orthogonalEdgeStyle;rounded=0;orthogonalLoop=1;jettySize=auto;html=1;exitX=1;exitY=0.5;exitDx=0;exitDy=0;entryX=0;entryY=0.5;entryDx=0;entryDy=0;" parent="_Ivw8oaos_YPIs7JbP6X-2" source="_Ivw8oaos_YPIs7JbP6X-9" target="_Ivw8oaos_YPIs7JbP6X-11" edge="1">
          <mxGeometry relative="1" as="geometry" />
        </mxCell>
        <mxCell id="_Ivw8oaos_YPIs7JbP6X-9" value="상품 전체 조회" style="rounded=1;whiteSpace=wrap;html=1;" parent="_Ivw8oaos_YPIs7JbP6X-2" vertex="1">
          <mxGeometry x="610" y="100" width="120" height="60" as="geometry" />
        </mxCell>
        <mxCell id="_Ivw8oaos_YPIs7JbP6X-27" style="edgeStyle=orthogonalEdgeStyle;rounded=0;orthogonalLoop=1;jettySize=auto;html=1;exitX=1;exitY=0.5;exitDx=0;exitDy=0;entryX=0;entryY=0.5;entryDx=0;entryDy=0;" parent="_Ivw8oaos_YPIs7JbP6X-2" source="_Ivw8oaos_YPIs7JbP6X-10" target="_Ivw8oaos_YPIs7JbP6X-11" edge="1">
          <mxGeometry relative="1" as="geometry" />
        </mxCell>
        <mxCell id="_Ivw8oaos_YPIs7JbP6X-10" value="상품 검색 조회" style="rounded=1;whiteSpace=wrap;html=1;" parent="_Ivw8oaos_YPIs7JbP6X-2" vertex="1">
          <mxGeometry x="610" y="170" width="120" height="60" as="geometry" />
        </mxCell>
        <mxCell id="_Ivw8oaos_YPIs7JbP6X-11" value="판매자와 대화" style="rounded=1;whiteSpace=wrap;html=1;" parent="_Ivw8oaos_YPIs7JbP6X-2" vertex="1">
          <mxGeometry x="780" y="100" width="120" height="60" as="geometry" />
        </mxCell>
        <mxCell id="_Ivw8oaos_YPIs7JbP6X-28" style="edgeStyle=orthogonalEdgeStyle;rounded=0;orthogonalLoop=1;jettySize=auto;html=1;exitX=1;exitY=0.5;exitDx=0;exitDy=0;entryX=0;entryY=0.5;entryDx=0;entryDy=0;" parent="_Ivw8oaos_YPIs7JbP6X-2" source="_Ivw8oaos_YPIs7JbP6X-12" target="_Ivw8oaos_YPIs7JbP6X-13" edge="1">
          <mxGeometry relative="1" as="geometry" />
        </mxCell>
        <mxCell id="_Ivw8oaos_YPIs7JbP6X-29" style="edgeStyle=orthogonalEdgeStyle;rounded=0;orthogonalLoop=1;jettySize=auto;html=1;exitX=1;exitY=0.5;exitDx=0;exitDy=0;entryX=0;entryY=0.5;entryDx=0;entryDy=0;" parent="_Ivw8oaos_YPIs7JbP6X-2" source="_Ivw8oaos_YPIs7JbP6X-12" target="_Ivw8oaos_YPIs7JbP6X-14" edge="1">
          <mxGeometry relative="1" as="geometry" />
        </mxCell>
        <mxCell id="_Ivw8oaos_YPIs7JbP6X-12" value="고객 센터" style="rounded=1;whiteSpace=wrap;html=1;" parent="_Ivw8oaos_YPIs7JbP6X-2" vertex="1">
          <mxGeometry x="260" y="500" width="120" height="60" as="geometry" />
        </mxCell>
        <mxCell id="_Ivw8oaos_YPIs7JbP6X-13" value="채팅" style="rounded=1;whiteSpace=wrap;html=1;" parent="_Ivw8oaos_YPIs7JbP6X-2" vertex="1">
          <mxGeometry x="420" y="500" width="120" height="60" as="geometry" />
        </mxCell>
        <mxCell id="_Ivw8oaos_YPIs7JbP6X-14" value="문의" style="rounded=1;whiteSpace=wrap;html=1;" parent="_Ivw8oaos_YPIs7JbP6X-2" vertex="1">
          <mxGeometry x="420" y="580" width="120" height="60" as="geometry" />
        </mxCell>
        <mxCell id="_Ivw8oaos_YPIs7JbP6X-33" value="경매 상품 생성" style="rounded=1;whiteSpace=wrap;html=1;" parent="_Ivw8oaos_YPIs7JbP6X-2" vertex="1">
          <mxGeometry x="610" y="240" width="120" height="60" as="geometry" />
        </mxCell>
        <mxCell id="_Ivw8oaos_YPIs7JbP6X-35" value="일반 상품 생성" style="rounded=1;whiteSpace=wrap;html=1;" parent="_Ivw8oaos_YPIs7JbP6X-2" vertex="1">
          <mxGeometry x="610" y="320" width="120" height="60" as="geometry" />
        </mxCell>
        <mxCell id="_Ivw8oaos_YPIs7JbP6X-38" value="로그인" style="rounded=1;whiteSpace=wrap;html=1;" parent="_Ivw8oaos_YPIs7JbP6X-2" vertex="1">
          <mxGeometry x="60" y="290" width="120" height="60" as="geometry" />
        </mxCell>
        <mxCell id="_Ivw8oaos_YPIs7JbP6X-39" value="회원가입" style="rounded=1;whiteSpace=wrap;html=1;" parent="_Ivw8oaos_YPIs7JbP6X-2" vertex="1">
          <mxGeometry x="60" y="360" width="120" height="60" as="geometry" />
        </mxCell>
        <mxCell id="_Ivw8oaos_YPIs7JbP6X-15" style="edgeStyle=orthogonalEdgeStyle;rounded=0;orthogonalLoop=1;jettySize=auto;html=1;exitX=1;exitY=0.5;exitDx=0;exitDy=0;entryX=0;entryY=0.5;entryDx=0;entryDy=0;" parent="_Ivw8oaos_YPIs7JbP6X-2" source="_Ivw8oaos_YPIs7JbP6X-38" target="_Ivw8oaos_YPIs7JbP6X-3" edge="1">
          <mxGeometry relative="1" as="geometry" />
        </mxCell>
        <mxCell id="_Ivw8oaos_YPIs7JbP6X-16" style="edgeStyle=orthogonalEdgeStyle;rounded=0;orthogonalLoop=1;jettySize=auto;html=1;exitX=1;exitY=0.5;exitDx=0;exitDy=0;entryX=0;entryY=0.5;entryDx=0;entryDy=0;" parent="_Ivw8oaos_YPIs7JbP6X-2" source="_Ivw8oaos_YPIs7JbP6X-38" target="_Ivw8oaos_YPIs7JbP6X-12" edge="1">
          <mxGeometry relative="1" as="geometry" />
        </mxCell>
      </root>
    </mxGraphModel>
  </diagram>
</mxfile>
